<svg width="1000" height="1000" viewBox="0 0 1000 1000" fill="none" xmlns="http://www.w3.org/2000/svg">
<path d="M434.5 107.816C475.032 84.4155 524.968 84.4155 565.5 107.816L806.891 247.184C847.422 270.584 872.391 313.831 872.391 360.633V639.367C872.391 686.169 847.422 729.416 806.891 752.816L565.5 892.184C524.968 915.584 475.032 915.584 434.5 892.184L193.109 752.816C152.578 729.416 127.609 686.169 127.609 639.367V360.633C127.609 313.831 152.578 270.584 193.109 247.184L434.5 107.816Z" fill="#FF5722"/>
<path d="M302.312 288.5C325.713 247.968 368.959 223 415.761 223L584.495 223C631.297 223 674.544 247.968 697.945 288.5L782.312 434.628C805.713 475.16 805.713 525.097 782.312 565.628L697.945 711.756C674.544 752.288 631.297 777.256 584.495 777.256L415.761 777.256C368.959 777.256 325.713 752.288 302.312 711.756L217.945 565.628C194.544 525.097 194.544 475.16 217.945 434.628L302.312 288.5Z" fill="white" fill-opacity="0.3"/>
<path opacity="0.4" d="M318 470.498C318 423.696 342.968 380.45 383.5 357.049L434.365 327.682C474.897 304.281 524.834 304.281 565.365 327.682L616.231 357.049C656.762 380.45 681.731 423.696 681.731 470.498L681.731 529.232C681.731 576.034 656.762 619.281 616.231 642.682L565.365 672.049C524.834 695.45 474.897 695.45 434.365 672.049L383.5 642.682C342.968 619.281 318 576.034 318 529.232L318 470.498Z" fill="white" fill-opacity="0.3"/>
<circle cx="500" cy="500" r="100" fill="white" fill-opacity="0.6"/>
</svg>
