<svg id="visual" viewBox="0 0 900 250" width="900" height="250" xmlns="http://www.w3.org/2000/svg" xmlns:xlink="http://www.w3.org/1999/xlink" version="1.1"><path d="M0 113L25 107.7C50 102.3 100 91.7 150 86.2C200 80.7 250 80.3 300 88.2C350 96 400 112 450 107.2C500 102.3 550 76.7 600 73.5C650 70.3 700 89.7 750 99C800 108.3 850 107.7 875 107.3L900 107L900 251L875 251C850 251 800 251 750 251C700 251 650 251 600 251C550 251 500 251 450 251C400 251 350 251 300 251C250 251 200 251 150 251C100 251 50 251 25 251L0 251Z" fill="#ff7043"></path><path d="M0 114L25 121C50 128 100 142 150 149.2C200 156.3 250 156.7 300 151.7C350 146.7 400 136.3 450 129.2C500 122 550 118 600 124.8C650 131.7 700 149.3 750 144.7C800 140 850 113 875 99.5L900 86L900 251L875 251C850 251 800 251 750 251C700 251 650 251 600 251C550 251 500 251 450 251C400 251 350 251 300 251C250 251 200 251 150 251C100 251 50 251 25 251L0 251Z" fill="#e25b88"></path><path d="M0 182L25 172.3C50 162.7 100 143.3 150 138.8C200 134.3 250 144.7 300 152.7C350 160.7 400 166.3 450 160.3C500 154.3 550 136.7 600 133.3C650 130 700 141 750 142.8C800 144.7 850 137.3 875 133.7L900 130L900 251L875 251C850 251 800 251 750 251C700 251 650 251 600 251C550 251 500 251 450 251C400 251 350 251 300 251C250 251 200 251 150 251C100 251 50 251 25 251L0 251Z" fill="#9966a5"></path><path d="M0 156L25 164.3C50 172.7 100 189.3 150 193.8C200 198.3 250 190.7 300 190.7C350 190.7 400 198.3 450 199.3C500 200.3 550 194.7 600 186.2C650 177.7 700 166.3 750 166.3C800 166.3 850 177.7 875 183.3L900 189L900 251L875 251C850 251 800 251 750 251C700 251 650 251 600 251C550 251 500 251 450 251C400 251 350 251 300 251C250 251 200 251 150 251C100 251 50 251 25 251L0 251Z" fill="#546791"></path><path d="M0 190L25 196.3C50 202.7 100 215.3 150 218.7C200 222 250 216 300 213C350 210 400 210 450 209C500 208 550 206 600 203C650 200 700 196 750 198.8C800 201.7 850 211.3 875 216.2L900 221L900 251L875 251C850 251 800 251 750 251C700 251 650 251 600 251C550 251 500 251 450 251C400 251 350 251 300 251C250 251 200 251 150 251C100 251 50 251 25 251L0 251Z" fill="#455a64"></path></svg>